<svg width="900" height="560" viewBox="0 0 900 560" fill="none" xmlns="http://www.w3.org/2000/svg">
  <rect width="900" height="560" fill="#F9FCFD"/>
  <rect x="18" y="18" width="864" height="524" rx="28" fill="url(#bg)" stroke="#E4EEF1"/>

  <g fill="#0F3948" font-family="Georgia, 'Times New Roman', serif" font-size="18">
    <text x="52" y="56">Overview</text>
    <text x="136" y="56">Geographies</text>
    <text x="238" y="56">Equity Lens</text>
    <text x="340" y="56">Data and Deployment</text>
  </g>
  <line x1="134" y1="66" x2="222" y2="66" stroke="#0B7A9A" stroke-width="3"/>
  <line x1="52" y1="74" x2="848" y2="74" stroke="#D5E4E8"/>

  <text x="52" y="128" fill="#0F3948" font-family="Georgia, 'Times New Roman', serif" font-size="34" font-weight="700">Highest-coverage geographies</text>

  <g fill="#7C8E97" font-family="Georgia, 'Times New Roman', serif" font-size="16">
    <text x="52" y="184">Commonwealt...</text>
    <text x="52" y="216">Massachusetts</text>
    <text x="52" y="248">New Hampshire</text>
    <text x="52" y="280">Nebraska</text>
    <text x="52" y="312">Minnesota</text>
    <text x="52" y="344">Iowa</text>
    <text x="52" y="376">Vermont</text>
    <text x="52" y="408">Washington</text>
    <text x="52" y="440">South Dakota</text>
    <text x="52" y="472">District of Colu...</text>
    <text x="52" y="504">Montana</text>
    <text x="52" y="536">Utah</text>
  </g>

  <g stroke="#E6EEF1" stroke-width="1">
    <line x1="190" y1="168" x2="842" y2="168"/>
    <line x1="190" y1="200" x2="842" y2="200"/>
    <line x1="190" y1="232" x2="842" y2="232"/>
    <line x1="190" y1="264" x2="842" y2="264"/>
    <line x1="190" y1="296" x2="842" y2="296"/>
    <line x1="190" y1="328" x2="842" y2="328"/>
    <line x1="190" y1="360" x2="842" y2="360"/>
    <line x1="190" y1="392" x2="842" y2="392"/>
    <line x1="190" y1="424" x2="842" y2="424"/>
    <line x1="190" y1="456" x2="842" y2="456"/>
    <line x1="190" y1="488" x2="842" y2="488"/>
    <line x1="190" y1="520" x2="842" y2="520"/>
  </g>

  <g>
    <rect x="190" y="172" width="650" height="22" rx="8" fill="#1E5B93"/>
    <rect x="190" y="204" width="610" height="22" rx="8" fill="#2B6FA3"/>
    <rect x="190" y="236" width="592" height="22" rx="8" fill="#3A86B5"/>
    <rect x="190" y="268" width="586" height="22" rx="8" fill="#4793BF"/>
    <rect x="190" y="300" width="580" height="22" rx="8" fill="#56A2C4"/>
    <rect x="190" y="332" width="578" height="22" rx="8" fill="#63ADC9"/>
    <rect x="190" y="364" width="572" height="22" rx="8" fill="#72B8CD"/>
    <rect x="190" y="396" width="566" height="22" rx="8" fill="#86C2D1"/>
    <rect x="190" y="428" width="562" height="22" rx="8" fill="#9BCCD6"/>
    <rect x="190" y="460" width="558" height="22" rx="8" fill="#AAD5D8"/>
    <rect x="190" y="492" width="554" height="22" rx="8" fill="#B4DDD8"/>
    <rect x="190" y="524" width="552" height="22" rx="8" fill="#BDE3D8"/>
  </g>

  <g fill="#748891" font-family="Arial, Helvetica, sans-serif" font-size="15">
    <text x="188" y="555">0</text>
    <text x="248" y="555">10</text>
    <text x="308" y="555">20</text>
    <text x="368" y="555">30</text>
    <text x="428" y="555">40</text>
    <text x="488" y="555">50</text>
    <text x="548" y="555">60</text>
    <text x="608" y="555">70</text>
    <text x="668" y="555">80</text>
    <text x="728" y="555">90</text>
  </g>

  <text x="468" y="538" fill="#6E7E86" font-family="Georgia, 'Times New Roman', serif" font-size="18">Average coverage (%)</text>
  <text x="68" y="372" transform="rotate(-90 68 372)" fill="#6E7E86" font-family="Georgia, 'Times New Roman', serif" font-size="18">Geography</text>

  <rect x="648" y="212" width="186" height="62" rx="12" fill="#F8FAFB" stroke="#D1DDE2"/>
  <text x="668" y="236" fill="#6F8188" font-family="Georgia, 'Times New Roman', serif" font-size="16">Geography</text>
  <text x="754" y="236" fill="#0F3948" font-family="Georgia, 'Times New Roman', serif" font-size="16" font-weight="700">Massachusetts</text>
  <text x="668" y="260" fill="#6F8188" font-family="Georgia, 'Times New Roman', serif" font-size="16">Coverage</text>
  <text x="748" y="260" fill="#0F3948" font-family="Georgia, 'Times New Roman', serif" font-size="16" font-weight="700">79.3</text>

  <defs>
    <linearGradient id="bg" x1="18" y1="18" x2="882" y2="542" gradientUnits="userSpaceOnUse">
      <stop stop-color="#F7FBFC"/>
      <stop offset="1" stop-color="#FCFDFC"/>
    </linearGradient>
  </defs>
</svg>
