<svg width="1280" height="640" viewBox="0 0 1280 640" fill="none" xmlns="http://www.w3.org/2000/svg">
  <rect width="1280" height="640" fill="#F6FBFC"/>
  <rect x="56" y="56" width="1168" height="528" rx="32" fill="url(#panel)"/>
  <circle cx="1038" cy="162" r="132" fill="#D8EEF2"/>
  <circle cx="1116" cy="124" r="74" fill="#F5D986"/>
  <rect x="108" y="120" width="470" height="28" rx="14" fill="#0F3948" fill-opacity="0.15"/>
  <rect x="108" y="168" width="622" height="78" rx="18" fill="#0F3948" fill-opacity="0.08"/>
  <rect x="108" y="274" width="210" height="96" rx="22" fill="#FFFFFF" fill-opacity="0.82"/>
  <rect x="340" y="274" width="210" height="96" rx="22" fill="#FFFFFF" fill-opacity="0.82"/>
  <rect x="572" y="274" width="210" height="96" rx="22" fill="#FFFFFF" fill-opacity="0.82"/>
  <rect x="804" y="274" width="210" height="96" rx="22" fill="#FFFFFF" fill-opacity="0.82"/>
  <rect x="108" y="402" width="570" height="126" rx="24" fill="#FFFFFF" fill-opacity="0.88"/>
  <rect x="704" y="402" width="468" height="126" rx="24" fill="#FFFFFF" fill-opacity="0.88"/>
  <path d="M168 476C212 442 256 420 300 430C344 440 388 496 432 490C476 484 520 400 564 384C608 368 652 406 696 420" stroke="#0F6D80" stroke-width="10" stroke-linecap="round"/>
  <path d="M778 486H864" stroke="#DAA520" stroke-width="12" stroke-linecap="round"/>
  <path d="M778 454H944" stroke="#0F6D80" stroke-width="12" stroke-linecap="round"/>
  <path d="M778 422H902" stroke="#4B7C59" stroke-width="12" stroke-linecap="round"/>
  <text x="108" y="152" fill="#0F3948" font-family="Georgia, 'Times New Roman', serif" font-size="26" font-weight="700">Vaccination Coverage Dashboard</text>
  <text x="108" y="208" fill="#0F3948" font-family="Georgia, 'Times New Roman', serif" font-size="54" font-weight="700">Maternal Vaccination Insights</text>
  <text x="108" y="244" fill="#35545D" font-family="Arial, Helvetica, sans-serif" font-size="24">Interactive Streamlit dashboard for exploring CDC vaccination coverage data across geographies, seasons, and subgroups.</text>
  <text x="140" y="320" fill="#35545D" font-family="Arial, Helvetica, sans-serif" font-size="18">Live demo</text>
  <text x="140" y="352" fill="#0F3948" font-family="Georgia, 'Times New Roman', serif" font-size="28" font-weight="700">Render deployed</text>
  <text x="372" y="320" fill="#35545D" font-family="Arial, Helvetica, sans-serif" font-size="18">Charts</text>
  <text x="372" y="352" fill="#0F3948" font-family="Georgia, 'Times New Roman', serif" font-size="28" font-weight="700">Trend and equity views</text>
  <text x="604" y="320" fill="#35545D" font-family="Arial, Helvetica, sans-serif" font-size="18">Filters</text>
  <text x="604" y="352" fill="#0F3948" font-family="Georgia, 'Times New Roman', serif" font-size="28" font-weight="700">Vaccine, season, geography</text>
  <text x="836" y="320" fill="#35545D" font-family="Arial, Helvetica, sans-serif" font-size="18">Export</text>
  <text x="836" y="352" fill="#0F3948" font-family="Georgia, 'Times New Roman', serif" font-size="28" font-weight="700">Filtered CSV download</text>
  <defs>
    <linearGradient id="panel" x1="56" y1="56" x2="1224" y2="584" gradientUnits="userSpaceOnUse">
      <stop stop-color="#E8F5F7"/>
      <stop offset="1" stop-color="#FFFDF7"/>
    </linearGradient>
  </defs>
</svg>
